<mxfile host="app.diagrams.net" modified="2022-11-08T15:15:08.931Z" agent="5.0 (Windows NT 10.0; Win64; x64) AppleWebKit/537.36 (KHTML, like Gecko) Chrome/107.0.0.0 Safari/537.36" etag="Kheqb2Ij2UtjqGQBn0sO" version="20.5.3" type="github">
  <diagram id="m2QvG6iwqRq2yh90tYuw" name="Page-1">
    <mxGraphModel dx="1662" dy="794" grid="1" gridSize="10" guides="1" tooltips="1" connect="1" arrows="1" fold="1" page="1" pageScale="1" pageWidth="850" pageHeight="1100" math="0" shadow="0">
      <root>
        <mxCell id="0" />
        <mxCell id="1" parent="0" />
        <mxCell id="vhjXlFrNrqfE6i9hmCUx-1" value="&lt;font size=&quot;3&quot;&gt;Home Page&lt;/font&gt;" style="rounded=0;whiteSpace=wrap;html=1;fontSize=6;" vertex="1" parent="1">
          <mxGeometry x="365" y="20" width="120" height="60" as="geometry" />
        </mxCell>
        <mxCell id="vhjXlFrNrqfE6i9hmCUx-2" value="About" style="rounded=1;whiteSpace=wrap;html=1;fontSize=12;" vertex="1" parent="1">
          <mxGeometry x="20" y="100" width="80" height="30" as="geometry" />
        </mxCell>
        <mxCell id="vhjXlFrNrqfE6i9hmCUx-3" value="Admissions&lt;span style=&quot;color: rgba(0, 0, 0, 0); font-family: monospace; font-size: 0px; text-align: start;&quot;&gt;%3CmxGraphModel%3E%3Croot%3E%3CmxCell%20id%3D%220%22%2F%3E%3CmxCell%20id%3D%221%22%20parent%3D%220%22%2F%3E%3CmxCell%20id%3D%222%22%20value%3D%22About%22%20style%3D%22rounded%3D1%3BwhiteSpace%3Dwrap%3Bhtml%3D1%3BfontSize%3D12%3B%22%20vertex%3D%221%22%20parent%3D%221%22%3E%3CmxGeometry%20x%3D%2290%22%20y%3D%22290%22%20width%3D%2280%22%20height%3D%2230%22%20as%3D%22geometry%22%2F%3E%3C%2FmxCell%3E%3C%2Froot%3E%3C%2FmxGraphModel%3E&lt;/span&gt;" style="rounded=1;whiteSpace=wrap;html=1;fontSize=12;" vertex="1" parent="1">
          <mxGeometry x="130" y="100" width="80" height="30" as="geometry" />
        </mxCell>
        <mxCell id="vhjXlFrNrqfE6i9hmCUx-4" value="Academics" style="rounded=1;whiteSpace=wrap;html=1;fontSize=12;" vertex="1" parent="1">
          <mxGeometry x="230" y="100" width="80" height="30" as="geometry" />
        </mxCell>
        <mxCell id="vhjXlFrNrqfE6i9hmCUx-5" value="Research" style="rounded=1;whiteSpace=wrap;html=1;fontSize=12;" vertex="1" parent="1">
          <mxGeometry x="330" y="100" width="80" height="30" as="geometry" />
        </mxCell>
        <mxCell id="vhjXlFrNrqfE6i9hmCUx-6" value="Outreach" style="rounded=1;whiteSpace=wrap;html=1;fontSize=12;" vertex="1" parent="1">
          <mxGeometry x="430" y="100" width="80" height="30" as="geometry" />
        </mxCell>
        <mxCell id="vhjXlFrNrqfE6i9hmCUx-7" value="International" style="rounded=1;whiteSpace=wrap;html=1;fontSize=12;" vertex="1" parent="1">
          <mxGeometry x="530" y="100" width="80" height="30" as="geometry" />
        </mxCell>
        <mxCell id="vhjXlFrNrqfE6i9hmCUx-8" value="Arts &amp;amp; Culture" style="rounded=1;whiteSpace=wrap;html=1;fontSize=12;" vertex="1" parent="1">
          <mxGeometry x="630" y="100" width="80" height="30" as="geometry" />
        </mxCell>
        <mxCell id="vhjXlFrNrqfE6i9hmCUx-9" value="Athletics" style="rounded=1;whiteSpace=wrap;html=1;fontSize=12;" vertex="1" parent="1">
          <mxGeometry x="730" y="100" width="80" height="30" as="geometry" />
        </mxCell>
      </root>
    </mxGraphModel>
  </diagram>
</mxfile>
